<?xml version="1.0" encoding="UTF-8"?>
<svg xmlns="http://www.w3.org/2000/svg" xmlns:xlink="http://www.w3.org/1999/xlink" width="2400" height="2400" viewBox="0 0 2400 2400">
<path fill-rule="nonzero" fill="rgb(0%, 0%, 0%)" fill-opacity="1" d="M 1783.199219 1233.410156 C 1783.199219 1210.101562 1802.101562 1191.199219 1825.410156 1191.199219 C 1848.730469 1191.199219 1867.628906 1210.101562 1867.628906 1233.410156 L 1867.628906 1739.660156 C 1867.628906 1838.921875 1827.039062 1929.144531 1761.671875 1994.519531 C 1696.289062 2059.894531 1606.070312 2100.476562 1506.808594 2100.476562 L 698.03125 2100.476562 C 598.761719 2100.476562 508.546875 2059.894531 443.171875 1994.519531 C 377.796875 1929.144531 337.210938 1838.921875 337.210938 1739.660156 L 337.210938 930.878906 C 337.210938 831.609375 377.796875 741.398438 443.171875 676.019531 C 508.546875 610.648438 598.761719 570.058594 698.03125 570.058594 L 1257.910156 570.058594 C 1281.230469 570.058594 1300.128906 588.960938 1300.128906 612.28125 C 1300.128906 635.589844 1281.230469 654.488281 1257.910156 654.488281 L 698.03125 654.488281 C 622.066406 654.488281 552.96875 685.601562 502.855469 735.710938 C 452.746094 785.820312 421.636719 854.921875 421.636719 930.878906 L 421.636719 1739.660156 C 421.636719 1815.625 452.746094 1884.722656 502.855469 1934.832031 C 552.96875 1984.941406 622.066406 2016.054688 698.03125 2016.054688 L 1506.808594 2016.054688 C 1582.769531 2016.054688 1651.871094 1984.941406 1701.980469 1934.832031 C 1752.089844 1884.722656 1783.199219 1815.625 1783.199219 1739.660156 Z M 1597.941406 602.820312 L 1845.640625 745.828125 L 1963.210938 542.179688 L 1715.519531 399.171875 Z M 1898.691406 822.058594 C 1898.289062 822.851562 1897.871094 823.640625 1897.421875 824.421875 C 1896.988281 825.160156 1896.53125 825.898438 1896.058594 826.609375 L 1524.820312 1469.613281 C 1519.488281 1478.898438 1511.140625 1485.378906 1501.71875 1488.527344 L 1501.738281 1488.578125 L 1236.53125 1577.773438 C 1214.488281 1585.148438 1190.640625 1573.265625 1183.269531 1551.230469 C 1182.488281 1548.914062 1181.929688 1546.582031 1181.570312 1544.246094 L 1126.589844 1271.839844 C 1124.5 1261.398438 1126.480469 1251.078125 1131.441406 1242.53125 L 1131.371094 1242.488281 L 1663.660156 320.53125 C 1675.320312 300.410156 1701.078125 293.539062 1721.210938 305.199219 L 2041.78125 490.28125 C 2061.898438 501.929688 2068.769531 527.699219 2057.109375 547.828125 L 2055.761719 550 Z M 1803.53125 818.769531 L 1555.828125 675.761719 L 1212.179688 1270.96875 L 1254.941406 1482.792969 L 1459.960938 1413.835938 L 1803.53125 818.769531 "/>
</svg>
