<svg width="36" height="36" viewBox="0 0 36 36" fill="none" xmlns="http://www.w3.org/2000/svg">
<path d="M15.4897 34H18.5103C19.6617 34 20.5439 33.2965 20.8131 32.189L21.4561 29.3901L21.9346 29.2254L24.372 30.7222C25.3439 31.3358 26.4654 31.1862 27.2878 30.363L29.3813 28.2825C30.2037 27.4593 30.3533 26.3218 29.7402 25.3639L28.215 22.9392L28.3944 22.4902L31.1907 21.8316C32.2822 21.5622 33 20.6642 33 19.5267V16.5631C33 15.4256 32.2972 14.5276 31.1907 14.2582L28.4243 13.5847L28.2299 13.1057L29.7551 10.681C30.3682 9.72311 30.2187 8.60056 29.3963 7.76239L27.3028 5.66698C26.4953 4.85875 25.3738 4.70907 24.4019 5.30776L21.9645 6.80449L21.4561 6.60992L20.8131 3.81104C20.5439 2.70346 19.6617 2 18.5103 2H15.4897C14.3383 2 13.4561 2.70346 13.1869 3.81104L12.529 6.60992L12.0206 6.80449L9.59813 5.30776C8.62617 4.70907 7.48972 4.85875 6.68224 5.66698L4.60374 7.76239C3.78131 8.60056 3.61682 9.72311 4.24486 10.681L5.75514 13.1057L5.5757 13.5847L2.80935 14.2582C1.7028 14.5276 1 15.4256 1 16.5631V19.5267C1 20.6642 1.71776 21.5622 2.80935 21.8316L5.60561 22.4902L5.77009 22.9392L4.25981 25.3639C3.63178 26.3218 3.79626 27.4593 4.61869 28.2825L6.6972 30.363C7.51963 31.1862 8.65607 31.3358 9.62804 30.7222L12.0505 29.2254L12.529 29.3901L13.1869 32.189C13.4561 33.2965 14.3383 34 15.4897 34ZM15.729 31.6651C15.4748 31.6651 15.3402 31.5603 15.2953 31.3209L14.3981 27.609C13.486 27.3845 12.6336 27.0253 11.9907 26.6211L8.73084 28.6268C8.5514 28.7615 8.35701 28.7315 8.17757 28.5519L6.41308 26.7858C6.2486 26.6211 6.23364 26.4415 6.35327 26.232L8.35701 22.9991C8.01308 22.3704 7.6243 21.5173 7.38505 20.6043L3.67664 19.7212C3.43738 19.6763 3.33271 19.5416 3.33271 19.2872V16.7877C3.33271 16.5182 3.42243 16.3985 3.67664 16.3536L7.37009 15.4556C7.60935 14.4827 8.05794 13.5996 8.3271 13.0458L6.33832 9.81291C6.20374 9.5884 6.21869 9.40879 6.38318 9.22919L8.16262 7.49298C8.34206 7.31338 8.50654 7.28344 8.73084 7.41815L11.9607 9.37886C12.6037 9.01964 13.5159 8.64546 14.4131 8.39102L15.2953 4.67914C15.3402 4.43966 15.4748 4.33489 15.729 4.33489H18.271C18.5252 4.33489 18.6598 4.43966 18.6897 4.67914L19.6019 8.42095C20.529 8.66043 21.3364 9.03461 22.0093 9.39383L25.2542 7.41815C25.4935 7.28344 25.643 7.31338 25.8374 7.49298L27.6019 9.22919C27.7813 9.40879 27.7813 9.5884 27.6467 9.81291L25.6579 13.0458C25.9421 13.5996 26.3757 14.4827 26.615 15.4556L30.3234 16.3536C30.5626 16.3985 30.6673 16.5182 30.6673 16.7877V19.2872C30.6673 19.5416 30.5477 19.6763 30.3234 19.7212L26.6 20.6043C26.3607 21.5173 25.9869 22.3704 25.628 22.9991L27.6318 26.232C27.7514 26.4415 27.7514 26.6211 27.572 26.7858L25.8224 28.5519C25.628 28.7315 25.4486 28.7615 25.2542 28.6268L21.9944 26.6211C21.3514 27.0253 20.514 27.3845 19.6019 27.609L18.6897 31.3209C18.6598 31.5603 18.5252 31.6651 18.271 31.6651H15.729ZM17 23.7175C20.1252 23.7175 22.6972 21.1431 22.6972 18C22.6972 14.8868 20.1252 12.3124 17 12.3124C13.8748 12.3124 11.2879 14.8868 11.2879 18C11.2879 21.1282 13.8598 23.7175 17 23.7175ZM17 21.3976C15.1458 21.3976 13.6206 19.8709 13.6206 18C13.6206 16.159 15.1458 14.6324 17 14.6324C18.8243 14.6324 20.3495 16.159 20.3495 18C20.3495 19.8559 18.8243 21.3976 17 21.3976Z" fill="black"/>
</svg>
