<svg width="32" height="34" viewBox="0 0 32 34" fill="none" xmlns="http://www.w3.org/2000/svg">
<path d="M2 8L6.66667 2H25.3333L30 8M2 8V29C2 29.7956 2.32778 30.5587 2.91122 31.1213C3.49467 31.6839 4.28599 32 5.11111 32H26.8889C27.714 32 28.5053 31.6839 29.0888 31.1213C29.6722 30.5587 30 29.7956 30 29V8M2 8H30M22.2222 14C22.2222 15.5913 21.5667 17.1174 20.3998 18.2426C19.2329 19.3679 17.6502 20 16 20C14.3498 20 12.7671 19.3679 11.6002 18.2426C10.4333 17.1174 9.77778 15.5913 9.77778 14" stroke="black" stroke-width="3" stroke-linecap="round" stroke-linejoin="round"/>
</svg>
