<svg width="35" height="36" viewBox="0 0 35 36" fill="none" xmlns="http://www.w3.org/2000/svg">
<path d="M28.5 13C32.0899 13 35 10.0899 35 6.5C35 2.91015 32.0899 0 28.5 0C24.9101 0 22 2.91015 22 6.5C22 10.0899 24.9101 13 28.5 13Z" fill="var(--color-primary)"/>
<path d="M22.1572 2.5C21.5942 3.39099 21.2139 4.40789 21.0684 5.5H7.40039L5.06641 8.5H21.2715C21.5832 9.62929 22.1515 10.6515 22.9111 11.5H3.5V31C3.5 31.3799 3.6557 31.7561 3.95215 32.042C4.25045 32.3296 4.66683 32.5 5.11133 32.5H26.8887C27.3332 32.5 27.7496 32.3296 28.0479 32.042C28.3443 31.7561 28.5 31.3799 28.5 31V14C29.5671 14 30.581 13.7747 31.5 13.373V31C31.5 32.2114 31.0003 33.3618 30.1299 34.2012C29.2613 35.0387 28.0943 35.5 26.8887 35.5H5.11133C3.90567 35.5 2.7387 35.0387 1.87012 34.2012C0.999672 33.3618 0.5 32.2114 0.5 31V10C0.5 9.66644 0.611618 9.3424 0.816406 9.0791L5.48242 3.0791C5.76661 2.71372 6.20411 2.5 6.66699 2.5H22.1572ZM22.2227 14.5C23.0509 14.5002 23.7227 15.1717 23.7227 16C23.7227 18.007 22.8951 19.9203 21.4414 21.3223C19.9894 22.7224 18.0308 23.5 16 23.5C13.9692 23.5 12.0106 22.7224 10.5586 21.3223C9.10488 19.9203 8.27734 18.007 8.27734 16C8.27734 15.1717 8.94912 14.5002 9.77734 14.5C10.6058 14.5 11.2773 15.1716 11.2773 16C11.2773 17.1755 11.7617 18.3146 12.6416 19.1631C13.5233 20.0132 14.7304 20.5 16 20.5C17.2696 20.5 18.4767 20.0132 19.3584 19.1631C20.2383 18.3146 20.7227 17.1755 20.7227 16C20.7227 15.1716 21.3942 14.5 22.2227 14.5Z" fill="var(--color-land-dark)"/>
</svg>
