<?xml version="1.0" encoding="UTF-8"?>
<svg xmlns="http://www.w3.org/2000/svg" viewBox="0 0 589.79 1104">
  <defs>
    <style>
      .cls-1 {
        fill: none;
        stroke: currentColor;
        stroke-miterlimit: 10;
        stroke-width: 33px;
      }
      .cls-2 {
        fill: currentColor;
      }
    </style>
  </defs>
  <g id="Flask">
    <path id="Flask-2" data-name="Flask" class="cls-1" d="M194.9,325s100,0,200,0c75,0,75,100,0,100v162.5c0,37.5,121.02,337.1,174.78,448.47,11.52,23.85-5.87,51.53-32.35,51.53H52.47c-26.49,0-43.87-27.68-32.35-51.53,53.76-111.36,174.78-410.97,174.78-448.47,0-100,0-162.5,0-162.5-75,0-75-100,0-100Z"/>
  </g>
  <g id="Liquid">
    <path id="Liquid-2" data-name="Liquid" class="cls-2" d="M505.6,1012.27c-35.73-73.4-123.21-287.27-136.34-346.63h-148.74c-13.13,59.36-100.6,273.23-136.34,346.63-5.68,11.66,2.82,25.23,15.79,25.23h389.84c12.97,0,21.46-13.57,15.79-25.23ZM232.4,987.5c-27.61,0-50-22.39-50-50s22.39-50,50-50,50,22.39,50,50-22.39,50-50,50ZM263.65,825c-17.26,0-31.25-13.99-31.25-31.25s13.99-31.25,31.25-31.25,31.25,13.99,31.25,31.25-13.99,31.25-31.25,31.25ZM357.4,912.5c-20.71,0-37.5-16.79-37.5-37.5s16.79-37.5,37.5-37.5,37.5,16.79,37.5,37.5-16.79,37.5-37.5,37.5Z"/>
  </g>
  <g id="Bubble4">
    <circle id="Bubble4-2" data-name="Bubble4" class="cls-2" cx="269.9" cy="262.5" r="25"/>
  </g>
  <g id="Bubble5">
    <circle id="Bubble5-2" data-name="Bubble5" class="cls-2" cx="351.15" cy="181.25" r="43.75"/>
  </g>
  <g id="Bubble6">
    <circle id="Bubble6-2" data-name="Bubble6" class="cls-2" cx="263.65" cy="56.25" r="56.25"/>
  </g>
</svg>